<svg xmlns="http://www.w3.org/2000/svg" width="960" height="620" viewBox="0 0 960 620" role="img" aria-labelledby="title desc">
<title id="title">Substrate — context that outlives the session</title>
<desc id="desc">Coding harnesses on laptops, workstations, and workers sit above Substrate. Blue arrows deliver scoped context and approved skills upward. Green arrows return observations and proposals through provenance and review. The durable layer holds instructions, preferences, memories, and skill state, with Postgres for context and state and Git for skill content. Checkpoints, knowledge maintenance, and skill proposals extend this foundation in the long-term vision.</desc>
<defs>
 <marker id="blue" viewBox="0 0 10 10" refX="8" refY="5" markerWidth="7" markerHeight="7" orient="auto"><path d="M1 1L9 5L1 9" fill="none" stroke="#8acaff" stroke-width="1.6"/></marker>
 <marker id="green" viewBox="0 0 10 10" refX="8" refY="5" markerWidth="7" markerHeight="7" orient="auto"><path d="M1 1L9 5L1 9" fill="none" stroke="#8ee0c0" stroke-width="1.6"/></marker>
 <style>text {font-family:DejaVu Sans,Arial,sans-serif} .title {font-size:29px;font-weight:700;fill:#f1f5fa} .label {font-size:15px;font-weight:700;fill:#f1f5fa} .body {font-size:13px;fill:#b0bfd2} .eyebrow {font-size:11px;letter-spacing:2px;font-weight:700;fill:#8acaff}</style>
</defs>
<rect width="960" height="620" rx="22" fill="#0b1220"/>
<text x="40" y="38" class="eyebrow">ONE AUTHORITY · MANY HARNESSES</text>
<text x="40" y="79" class="title">Context that outlives the session.</text>
<text x="40" y="105" class="body">Instructions, knowledge, and reusable practice — wherever work happens.</text>
<rect x="40" y="132" width="202" height="70" rx="12" fill="#131f31" stroke="#33465f"/><text x="58" y="161" class="label">Claude Code</text><text x="58" y="184" class="body">Laptop</text>
<rect x="266" y="132" width="202" height="70" rx="12" fill="#131f31" stroke="#33465f"/><text x="284" y="161" class="label">Codex</text><text x="284" y="184" class="body">Workstation</text>
<rect x="492" y="132" width="202" height="70" rx="12" fill="#131f31" stroke="#33465f"/><text x="510" y="161" class="label">Cursor</text><text x="510" y="184" class="body">Desktop</text>
<rect x="718" y="132" width="202" height="70" rx="12" fill="#131f31" stroke="#33465f"/><text x="736" y="161" class="label">MCP client</text><text x="736" y="184" class="body">Headless worker</text>
<path d="M200 285V214" fill="none" stroke="#8acaff" stroke-width="2.5" marker-end="url(#blue)"/>
<text x="222" y="241" fill="#8acaff" font-size="14" font-weight="700">Context + approved skills</text>
<text x="222" y="262" class="body">MCP · rendered files · skill links</text>
<path d="M886 211V281" fill="none" stroke="#8ee0c0" stroke-width="2.5" marker-end="url(#green)"/>
<text x="859" y="241" text-anchor="end" fill="#8ee0c0" font-size="14" font-weight="700">Observations + proposals</text>
<text x="859" y="262" text-anchor="end" class="body">Provenance · status · review</text>
<rect x="40" y="289" width="880" height="207" rx="16" fill="#142e49" stroke="#8acaff"/>
<text x="64" y="328" class="title">Substrate</text>
<text x="896" y="326" text-anchor="end" class="body">SELF-HOSTED CONTEXT LAYER</text>
<rect x="64" y="350" width="199" height="76" rx="10" fill="#131f31"/><text x="78" y="379" class="label">Instructions</text><text x="78" y="404" class="body">Deterministic rules</text>
<rect x="275" y="350" width="199" height="76" rx="10" fill="#131f31"/><text x="289" y="379" class="label">Preferences</text><text x="289" y="404" class="body">Personal working choices</text>
<rect x="486" y="350" width="199" height="76" rx="10" fill="#131f31"/><text x="500" y="379" class="label">Memories</text><text x="500" y="404" class="body">Knowledge with evidence</text>
<rect x="697" y="350" width="199" height="76" rx="10" fill="#131f31"/><text x="711" y="379" class="label">Skills</text><text x="711" y="404" class="body">Approved Git versions</text>
<text x="64" y="455" class="body">Scoped delivery · permission checks · context budgets · retained history</text>
<text x="64" y="478" class="body">Postgres: context + skill state</text><text x="896" y="478" text-anchor="end" class="body">Git: skill content + versions</text>
<text x="40" y="532" class="eyebrow">THE LONG-TERM GOAL</text>
<text x="40" y="558" class="label">Learn across sessions. Improve shared skills. Continue work anywhere.</text>
<text x="40" y="584" class="body">Planned: knowledge maintenance · skill proposals · checkpoints and handoffs</text>
</svg>
